<?xml version="1.0" encoding="utf-8"?>
<!-- Generator: Adobe Illustrator 19.1.0, SVG Export Plug-In . SVG Version: 6.00 Build 0)  -->
<svg version="1.1" id="Lager_1" xmlns="http://www.w3.org/2000/svg" xmlns:xlink="http://www.w3.org/1999/xlink" x="0px" y="0px"
	 viewBox="0 0 95.2 158.5" style="enable-background:new 0 0 95.2 158.5;" xml:space="preserve">
<style type="text/css">
	.st0{fill:url(#SVGID_1_);}
	.st1{fill:url(#SVGID_2_);}
	.st2{fill:url(#SVGID_3_);}
	.st3{fill:#D2EFFA;}
	.st4{fill:url(#SVGID_4_);}
</style>
<linearGradient id="SVGID_1_" gradientUnits="userSpaceOnUse" x1="47.9537" y1="157.4442" x2="47.9537" y2="11.6667">
	<stop  offset="0" style="stop-color:#FDE909"/>
	<stop  offset="1" style="stop-color:#E92038"/>
</linearGradient>
<path class="st0" d="M48,78c1.5-1.4-10.3-22.8-11.5-28c-1.5-6.5,0.1-11.7,0.2-13.5c6.8-16.3,24.5-24.8,24.5-24.8
	S47.1,26.4,45.7,33.3c-1.2,5.7,1,9.3,1,9.3s5.2,10.6,6.7,12.7c1.5,2,9,12.2,10.3,14s4.2,5.7,6.3,8.6c3.2,4.2,1.4-24.3,1.4-24.3
	s7.3,17.9,8.1,24.3c0.8,6.4,2.3,16.2,1,22.4c-1.2,5.9-3.6,14.4-4.2,18.1c-0.5,3,2.7,0,2.7,0s5.3-4.7,6.8-7.5
	c1.8-3.6,2.8-7.7,2.8-7.7c-0.1-0.8,1.4,7.2,1,11.8c-0.4,4.5-3.2,10.2-5.2,13.2c-1.7,2.6-3.1,3.7-3.3,6c-0.1,0.9,0.4,2.4,1.7,2.7
	c2.1,0.5,11.3-9.7,11.3-9.7C93.2,142.7,61,157,61,157c13.5-11.2,13.3-29.3,13.3-29.3S63.7,139.9,58,141.4c0,0,7.1-12.2,9-23.4
	c2.5-8.7,0.9-19-0.7-24.7c-1.1-3.9-7.5,43.3-26.3,54c0,0,0.7-12.8-0.3-13.3s-2.4,3.3-4.5,7.8c-1.9,3.9-5,11.9-8.1,11.9
	s-10-16.3-10-16.3s-2.9,4.7-3,10.3c-0.1,4.7,5.8,9.3,5.8,9.3C8,160.3,2.5,144.3,2.5,144.3s-1.3-6.5,0-11.3s8.2-12,10.5-14.3
	c2.3-2.4,13.7-14,13.7-14c-0.6,3.8-1.7,9.7-1.7,9.7c12.5-1.3,16.2-14,16.7-18.3s-1.3-25-1.3-25S46.5,79.4,48,78z"/>
<linearGradient id="SVGID_2_" gradientUnits="userSpaceOnUse" x1="87.9935" y1="100.25" x2="87.9935" y2="64.125">
	<stop  offset="0" style="stop-color:#FDE909"/>
	<stop  offset="0.5816" style="stop-color:#E92038"/>
</linearGradient>
<path class="st1" d="M86.5,100.3c0,0,2.5-10.6-1.3-17.5c-6.6-11.9,0.6-18.6,0.6-18.6s-1.5,7.3-1.2,9.5s1.8,7.2,3.3,7.2
	s1.1-2.7,1.1-2.7s4.4,7,4.4,11.8S86.5,100.3,86.5,100.3z"/>
<linearGradient id="SVGID_3_" gradientUnits="userSpaceOnUse" x1="38.1523" y1="44.375" x2="38.1523" y2="2.25">
	<stop  offset="0" style="stop-color:#FDE909"/>
	<stop  offset="0.5816" style="stop-color:#E92038"/>
</linearGradient>
<path class="st2" d="M46.3,2.3c0,0-6.2,13.5-12,19.5c-9.6,10-4,22.6-4,22.6s-1.5-13.2,7.6-19.9C52.8,13.5,46.3,2.3,46.3,2.3z"/>
<g>
	<g>
		<g>
			<g>
				<g>
					<path class="st3" d="M37.5,153.9c-0.1,0-0.2-0.2-0.2-0.1L37.5,153.9L37.5,153.9z"/>
					<path class="st3" d="M37,153.5c0.1,0.1,0.4,0.3,0.6,0.4c-0.3-0.2-0.2-0.1-0.5-0.3c0,0,0.1,0.1,0.2,0.1c-0.1,0,0.1,0-0.1-0.1
						c-0.2-0.1-0.2-0.1-0.1,0C37.1,153.6,37.1,153.6,37,153.5z"/>
					<path class="st3" d="M36.5,153.4L36.5,153.4C36.5,153.4,36.5,153.4,36.5,153.4z"/>
					<path class="st3" d="M36.3,153.4C36.3,153.4,36.2,153.3,36.3,153.4C36.2,153.3,36.2,153.3,36.3,153.4z"/>
					<path class="st3" d="M36,153.1C36,153.1,36,153.1,36,153.1C36,153.1,36,153.1,36,153.1z"/>
					<path class="st3" d="M36.5,153.4L36.5,153.4C36.5,153.4,36.5,153.4,36.5,153.4z"/>
					<path class="st3" d="M37.7,154C37.6,154,37.6,154,37.7,154C37.6,154,37.6,154,37.7,154L37.7,154z"/>
					<path class="st3" d="M36.3,153.2L36.3,153.2c0,0-0.1-0.1-0.1-0.1L36.3,153.2z"/>
					<path class="st3" d="M36.3,153.1c0,0,0.2,0.2,0.3,0.2c-0.1-0.1-0.1-0.1-0.2-0.1C36.4,153.2,36.4,153.2,36.3,153.1z"/>
					<path class="st3" d="M36.7,153.4L36.7,153.4C36.7,153.4,36.7,153.4,36.7,153.4z"/>
					<path class="st3" d="M36.2,153.2C36.2,153.1,36.2,153.1,36.2,153.2L36.2,153.2z"/>
					<path class="st3" d="M36.4,155.7C36.4,155.7,36.4,155.7,36.4,155.7C36.4,155.7,36.4,155.7,36.4,155.7z"/>
					<polygon class="st3" points="35.7,154.5 35.7,154.4 35.7,154.3 					"/>
					<path class="st3" d="M35.7,152.9L35.7,152.9C35.7,152.9,35.7,152.9,35.7,152.9z"/>
					<path class="st3" d="M35.7,153.2c0.2,0.2,0.2,0.3,0.4,0.5C36,153.6,35.8,153.4,35.7,153.2z"/>
					<path class="st3" d="M37.6,154L37.6,154C37.6,154,37.6,154,37.6,154z"/>
					<polygon class="st3" points="36,153.7 36.1,153.7 36.1,153.7 					"/>
					<path class="st3" d="M35.8,153.1C35.8,153.1,35.8,153.1,35.8,153.1C35.9,153.1,35.8,153.1,35.8,153.1z"/>
					<path class="st3" d="M36.1,153.3L36.1,153.3C36.1,153.3,36.1,153.3,36.1,153.3z"/>
					<path class="st3" d="M36,153.4C36,153.4,36,153.3,36,153.4C36,153.4,36,153.4,36,153.4C36,153.4,36,153.3,36,153.4z"/>
					<path class="st3" d="M36,153.4C36,153.4,36,153.4,36,153.4L36,153.4L36,153.4z"/>
					<path class="st3" d="M36.5,155.5c0-0.1-0.1-0.1-0.1-0.2C36.5,155.4,36.5,155.5,36.5,155.5z"/>
					<path class="st3" d="M37.5,153.9C37.6,154,37.6,154,37.5,153.9C37.6,154,37.6,154,37.5,153.9C37.6,154,37.5,153.9,37.5,153.9z"
						/>
					<path class="st3" d="M37.6,155L37.6,155C37.6,155,37.6,155,37.6,155z"/>
					<path class="st3" d="M36.8,155.2L36.8,155.2C36.8,155.3,36.8,155.3,36.8,155.2z"/>
					<path class="st3" d="M37.6,155c-0.1-0.1-0.1-0.1-0.1-0.1C37.4,154.9,37.4,154.9,37.6,155L37.6,155z"/>
					<path class="st3" d="M36.4,155.3L36.4,155.3L36.4,155.3z"/>
					<path class="st3" d="M36.6,155.9c0,0-0.2-0.3-0.3-0.5c0-0.1,0.1,0.2,0.2,0.4c0-0.1-0.2-0.4-0.2-0.4c0,0.1,0,0.1,0.1,0.1
						c-0.1-0.3,0,0-0.2-0.4c0,0,0,0.1,0,0.1c-0.1-0.2-0.2-0.3-0.2-0.4c0,0-0.1-0.2,0,0c0,0,0,0.1,0.1,0.1l0-0.1
						c0.2,0.3,0.1,0.1,0.2,0.3c0-0.1-0.2-0.4-0.1-0.3c0.2,0.3,0,0.1,0.2,0.4l-0.1-0.1c0.3,0.5,0,0,0.3,0.5c0.1,0.1-0.1-0.2,0-0.1
						c-0.1-0.2-0.1-0.2-0.2-0.4c-0.2-0.3,0.4,0.7,0.2,0.3c-0.1-0.2-0.3-0.6-0.2-0.4l0.2,0.3c0,0-0.3-0.5-0.1-0.3
						c0.1,0.1,0.1,0.1,0.1,0.2c0.2,0.3-0.1-0.2-0.1-0.2l0.2,0.3c0,0-0.1-0.3-0.1-0.3c0.1,0.1,0.1,0.2,0.2,0.3
						c-0.1-0.2,0.1,0,0.2,0.2l-0.1-0.3c0,0,0.1,0.1,0.1,0.2c0.1,0.1-0.1-0.2-0.2-0.3c0,0,0.1,0.1,0.1,0.2c-0.1-0.2-0.3-0.5-0.1-0.2
						l0,0.1c0.1,0.1-0.3-0.5-0.2-0.3l0,0c0.1,0.1,0-0.1,0.2,0.2c-0.2-0.4,0.1,0.1-0.2-0.3c0.2,0.2,0.2,0.3,0.3,0.5
						c0,0-0.2-0.3-0.2-0.4l0.2,0.3l-0.2-0.3l0.2,0.3l0-0.1c0,0-0.1-0.1-0.1-0.2c-0.1-0.1,0.1,0.2,0.2,0.3l-0.1-0.2
						c0.1,0.1,0.1,0.1,0.1,0.2c-0.2-0.3,0.2,0.3,0,0c0-0.1-0.1-0.2-0.1-0.2c0.1,0.2,0.1,0.1,0.1,0.1l0.1,0.2c0,0,0-0.1,0-0.1
						c-0.1-0.1-0.3-0.4-0.3-0.4l0.2,0.3c-0.1-0.2-0.1-0.1-0.2-0.3c0,0,0.2,0.3,0.3,0.4l-0.1-0.1c0.1,0.1,0.1,0.1,0.2,0.2
						c-0.1-0.2,0.2,0.3,0,0l0.1,0.1c0,0,0-0.1,0-0.1c-0.2-0.2-0.1-0.2-0.3-0.4c0.1,0.1,0.2,0.2,0.2,0.2c-0.1-0.1-0.1-0.2-0.2-0.3
						c0.2,0.2,0.1,0.2,0.3,0.3c0,0,0-0.1-0.1-0.2c-0.1-0.1-0.1-0.1-0.1-0.2c0,0,0.1,0.1,0.1,0.2l0,0c-0.2-0.3,0.5,0.6,0.2,0.1l0,0
						l-0.2-0.2c0,0,0.1,0.2,0.2,0.3c-0.3-0.3,0.1,0-0.1-0.2c0.5,0.6,0-0.1,0.3,0.3l-0.1-0.1c-0.1-0.1,0.1,0.1,0.1,0.1
						c-0.1-0.1-0.1-0.1-0.2-0.2c-0.1-0.2,0.2,0.2,0.4,0.2c0,0-0.6-0.7-0.3-0.4l0.2,0.2c-0.2-0.3,0.1,0-0.2-0.3
						c0.1,0.1,0.1,0.1,0.1,0.1c0.2,0.2,0,0-0.1-0.1c0,0,0.1,0.1,0.2,0.2c0.1,0.1-0.2-0.2,0-0.1c0,0,0.1,0.1,0.1,0.1
						c-0.1-0.1,0,0-0.2-0.2c0.1,0.1-0.1-0.1,0,0c-0.2-0.2,0.1,0.1-0.2-0.2c0.3,0.3,0.3,0.3,0.1,0.1c0.1,0.1,0.1,0.1,0.2,0.2
						c0,0-0.1-0.1-0.2-0.2c0.4,0.4-0.3-0.3,0.2,0.2c-0.2-0.2-0.3-0.3-0.3-0.4c0.3,0.3,0,0,0.4,0.4c-0.1-0.1-0.4-0.4-0.3-0.4
						c0,0,0.1,0.1,0.2,0.2c-0.1-0.1,0.1,0-0.1-0.2c0,0,0.1,0.1,0.1,0.1c0,0,0.1,0-0.1-0.1l0,0c-0.2-0.2-0.4-0.4-0.6-0.5
						c0.4,0.4,0.1,0.1,0.7,0.6c0,0-0.1-0.1-0.2-0.2c0,0,0.1,0.1,0.2,0.2c-0.1-0.1-0.2-0.2-0.2-0.2c0.1,0.1,0.1,0.1,0.2,0.2
						c-0.1-0.1-0.3-0.3-0.2-0.2c0,0,0.1,0.1,0.1,0.1c0,0-0.4-0.4-0.2-0.2c0.3,0.3,0.1,0.1,0.4,0.3l-0.1-0.1l-0.1-0.1
						c0,0-0.2-0.2-0.1-0.1l0.1,0.1l0-0.1l-0.1-0.1c-0.1-0.1-0.4-0.3-0.3-0.3c0,0,0,0,0.2,0.1l0,0c-0.1-0.1-0.2-0.2-0.1-0.1
						c0.1,0.1,0.3,0.3,0.4,0.3c-0.2-0.2-0.1-0.1-0.3-0.3c0.1,0.1,0.2,0.2,0.2,0.2l-0.2-0.2c0.1,0.1,0.1,0.1,0.2,0.2
						c0,0-0.4-0.3-0.2-0.2c0,0,0,0,0.1,0.1c0.1,0.1-0.1-0.1,0,0c0.3,0.2,0.1,0.1,0.3,0.3c0-0.1-0.3-0.3-0.2-0.3l0,0
						c-0.4-0.3,0.2,0.2,0,0c0,0,0.1,0.1,0.2,0.2c0.1,0-0.1-0.1-0.2-0.2l0.1,0.1c0.1,0.1,0.1,0,0.1,0.1c-0.1-0.1-0.1-0.1-0.2-0.2
						c0.6,0.5-0.3-0.3,0.2,0.1l0.1,0.1l-0.1-0.1c-0.2-0.1-0.1-0.1-0.3-0.2c-0.1-0.1-0.2-0.2-0.2-0.2c0.1,0.1,0.3,0.2,0.4,0.3
						c-0.1,0-0.1-0.1-0.2-0.1c0.3,0.2-0.4-0.3-0.1-0.1l0.1,0.1c0,0-0.2-0.1-0.1-0.1c0.2,0.2,0.1,0.1,0.3,0.2c0,0-0.4-0.3-0.2-0.2
						c0.1,0,0.1,0,0.1,0.1c0.3,0.2,0.2,0.1,0.2,0.2l0,0l0.1,0.1l-0.1,0c-0.6-0.4-0.1-0.1-0.5-0.4c0.3,0.3,0.2,0.2,0.4,0.3
						c0.1,0,0.1,0.1,0.2,0.2c-0.2-0.1,0.2,0.1-0.1-0.1c0.1,0.1,0,0,0.2,0.1c-0.1-0.1-0.1-0.1-0.2-0.2c-0.3-0.2,0.3,0.2,0-0.1
						c-0.1-0.1-0.4-0.3-0.5-0.4c0.1,0.1,0.3,0.2,0.3,0.2c0.1,0.1,0.1,0.1,0,0c0.1,0,0.1,0.1,0.2,0.2c0,0-0.3-0.2-0.2-0.1
						c0.1,0.1,0.2,0.2,0.3,0.2c-0.1-0.1-0.2-0.2-0.3-0.2c0.1,0.1,0.2,0.2,0.3,0.2c-0.1,0-0.1-0.1-0.3-0.3l-0.1-0.1
						c0,0,0.2,0.1,0.2,0.2c0.2,0.1-0.1,0-0.2-0.1l0,0c-0.5-0.3,0.1,0.1,0,0.1l-0.3-0.2l0.3,0.2c-0.1-0.1-0.3-0.2-0.3-0.2
						c-0.2-0.1,0.1,0.1-0.1,0c0,0,0,0-0.1,0l0.1,0.1c-0.1-0.1-0.2-0.2-0.2-0.1c-0.2-0.1,0.2,0.2,0,0l0,0c0.1,0.1,0.2,0.2,0.5,0.4
						l-0.6-0.4l0.2,0.2c0,0,0,0-0.1-0.1c0.2,0.1,0.1,0.1,0.3,0.2c-0.2-0.2,0.1,0.1-0.3-0.2c0.2,0.1,0.1,0.1,0.3,0.2
						c-0.4-0.3,0.1,0.1-0.1-0.1c-0.2-0.2-0.1-0.1-0.3-0.2c0.4,0.3-0.1-0.1,0,0c0.3,0.2,0.1,0.1,0.2,0.2c-0.1-0.1-0.2-0.1-0.3-0.2
						l0,0c0.3,0.2,0.2,0.2,0.3,0.2c-0.2-0.1-0.2-0.2-0.3-0.3l0,0c0.1,0.1,0.1,0.1,0.2,0.1l-0.2-0.2c0,0,0.2,0.2,0.1,0.1
						c0.2,0.2,0.6,0.4,0.7,0.5c-0.1-0.1-0.3-0.2-0.3-0.3c0,0,0.1,0.1,0,0l-0.2-0.1c-0.1-0.1,0.2,0.1,0.1,0.1
						c-0.2-0.1-0.1-0.1-0.2-0.2c0,0,0.1,0,0,0c0,0-0.1-0.1-0.2-0.2c0.1,0.1,0.2,0.2,0.2,0.2c0,0-0.2-0.1-0.3-0.2
						c0.1,0.1,0,0,0.2,0.2c0,0-0.1-0.1-0.2-0.1c0.1,0.1,0,0,0.3,0.2l0,0l0,0l0,0l0,0c0.2,0.2-0.1-0.1,0,0l-0.1-0.1
						c0.1,0.1,0,0.1,0.2,0.2c0,0-0.1-0.1-0.2-0.2c0.1,0.1,0.1,0.1,0,0c-0.1-0.1-0.1-0.1-0.1-0.1c-0.1-0.1-0.2-0.2,0,0
						c-0.2-0.2-0.2-0.2-0.2-0.2l0.1,0.1c0,0,0,0,0,0l-0.3-0.2c-0.3-0.3,0.5,0.5,0,0c0.2,0.2,0.1,0.1,0.3,0.3c0,0-0.4-0.3-0.4-0.3
						c-0.1-0.1,0.4,0.3,0.3,0.2c0.1,0.1,0.3,0.3,0.4,0.4c0,0-0.4-0.3-0.4-0.4c0,0,0,0,0.1,0c0,0-0.1-0.1-0.2-0.1l0.1,0.1
						c-0.1-0.1-0.1-0.1-0.2-0.2c0.1,0.1,0.1,0.1,0.2,0.2c-0.1-0.1,0,0-0.1-0.1c0,0,0.2,0.1,0.2,0.1c-0.1-0.1,0.2,0.2,0.2,0.2
						c-0.1-0.1-0.3-0.3-0.2-0.2c-0.1-0.1-0.2-0.2-0.3-0.3c0.2,0.2-0.1-0.1-0.1-0.1l-0.1-0.1c0,0,0,0,0,0l0.2,0.2c0,0,0,0-0.1-0.1
						c0.1,0.1,0.3,0.3,0.4,0.4c-0.1-0.1,0.1,0.1-0.1-0.1c0.1,0.1-0.2-0.2-0.3-0.3c0,0,0,0,0,0c0,0,0,0-0.1-0.1
						c-0.2-0.2,0.3,0.2,0.2,0.2c-0.1-0.1-0.2-0.2-0.2-0.2c0,0,0.2,0.2,0.3,0.3c-0.1-0.1,0.1,0.1,0.1,0.1l0,0
						c0.1,0.1,0.1,0.1,0.1,0.1c-0.1-0.1-0.1-0.1-0.1-0.1c0.2,0.2-0.2-0.2-0.1-0.1c-0.1-0.1-0.2-0.2-0.3-0.3c0.2,0.2-0.2-0.2,0,0
						c0.2,0.2,0.1,0.1,0.3,0.3l-0.1-0.1l0.2,0.2c0,0-0.1-0.1-0.1-0.1c0.1,0.1,0.1,0.1,0.2,0.2c-0.3-0.2,0.1,0.2,0,0l-0.4-0.4
						c-0.2-0.2,0.2,0.2,0.1,0.1l0.1,0.1c0.2,0.2,0,0,0.1,0.1c-0.1-0.1-0.2-0.2-0.3-0.3c0.1,0.1,0,0,0.3,0.3l-0.2-0.2
						c-0.1-0.1,0.4,0.4,0.3,0.4c-0.1-0.2-0.2-0.3-0.4-0.4c0,0,0,0,0.1,0.1c-0.1-0.1,0.2,0.2,0,0.1c0.1,0.1,0.2,0.2,0.2,0.2
						c0,0-0.1-0.1-0.1-0.1c0.1,0.1,0.1,0.1,0.2,0.3c-0.4-0.4,0,0-0.4-0.3c0,0.1,0.1,0.1,0.1,0.1c0,0-0.1-0.1-0.1-0.1
						c-0.1-0.1,0.4,0.4,0.2,0.3c-0.2-0.2-0.1-0.1-0.2-0.2c-0.4-0.5,0.1,0.1-0.2-0.2l0,0c-0.2-0.2,0.2,0.2,0.1,0.2c0,0,0,0-0.1-0.1
						c0.2,0.2,0.3,0.3,0.3,0.4c-0.2-0.2-0.1-0.1-0.3-0.3c0,0,0.3,0.3,0.3,0.4c-0.1-0.1-0.2-0.2-0.4-0.4l0,0c-0.2-0.3,0,0,0,0
						l-0.1-0.1c0,0,0.3,0.3,0.3,0.3l0.1,0.1c0.3,0.3-0.1-0.2,0,0.1l-0.3-0.3c0.1,0.1,0.2,0.3,0.3,0.4c-0.2-0.2-0.3-0.3-0.4-0.5
						c0,0,0,0,0.1,0.2c0,0-0.1-0.1,0-0.1c0.2,0.2,0.3,0.4,0.3,0.4c-0.5-0.6-0.1-0.1-0.5-0.6c0.2,0.2-0.1-0.1-0.1,0
						c0.4,0.5,0,0,0.4,0.5c0,0,0,0,0,0l-0.2-0.3c-0.1-0.1-0.1-0.1-0.2-0.2c0,0-0.2-0.2-0.3-0.3c0.1,0.2,0.2,0.2,0.1,0.2l0.2,0.2
						c0.2,0.3-0.3-0.4-0.1-0.1l-0.1-0.2c0.1,0.1,0,0,0.3,0.4c0-0.1-0.1-0.2-0.2-0.2c-0.1-0.1,0.3,0.4,0.1,0.2l-0.1-0.1
						c0,0,0.2,0.2,0.1,0.1c0,0-0.1-0.1-0.1-0.1c0,0,0.2,0.2,0.1,0.1l-0.1-0.1c-0.1-0.2,0.2,0.3,0.3,0.4c-0.3-0.4-0.4-0.5-0.4-0.5
						l0-0.1c0,0,0.2,0.3,0.3,0.4c-0.3-0.4-0.1-0.2-0.3-0.4c0,0.1,0.2,0.3,0.2,0.3c-0.1-0.1,0.2,0.3-0.1-0.1l0,0
						c-0.2-0.3-0.2-0.2-0.2-0.2l0.3,0.4c-0.4-0.6,0.1,0.2-0.2-0.3c0.1,0.1,0.1,0.1,0.1,0.2l-0.2-0.2c0-0.1-0.1-0.1,0,0l-0.1-0.2
						c0,0,0.4,0.7,0.4,0.7l-0.2-0.4c0,0-0.2-0.3,0,0c0-0.1-0.1-0.2-0.1-0.2c0,0-0.2-0.2,0.1,0.3c-0.2-0.3,0,0,0.1,0.1l-0.1-0.2
						c0.2,0.3,0.2,0.4,0.3,0.5c0,0-0.1-0.2-0.1-0.1c-0.1-0.1,0.1,0.2,0.1,0.1l-0.1-0.2c0,0,0,0.1,0.1,0.2c0.1,0.1,0-0.1-0.2-0.3
						c0.1,0.1,0.2,0.3,0.1,0.2c0-0.1-0.1-0.1-0.1-0.2c-0.1-0.2,0.2,0.3,0,0.1c0-0.1-0.1-0.1-0.1-0.1c0,0,0,0,0,0
						c-0.1-0.2-0.2-0.3-0.3-0.6c0.1,0.2,0.3,0.5,0.2,0.4c0,0,0,0,0-0.1l0,0c0,0,0,0,0,0c0,0,0-0.1,0-0.1c-0.1-0.2-0.1-0.1-0.1-0.1
						c0.1,0.2,0.1,0.2,0.2,0.4c0,0,0,0,0,0c0,0,0,0,0,0l0,0l0,0c0.1,0.1,0.1,0.2,0,0.1c0.1,0.2,0.2,0.3,0.2,0.4
						c-0.2-0.3-0.3-0.5-0.4-0.7c0.1,0.1,0,0.1,0.3,0.6c0,0.1-0.1-0.1-0.1-0.2c0,0,0,0-0.1-0.1c0.1,0.1,0,0.1,0.2,0.4
						c-0.1-0.1-0.2-0.3-0.1-0.2l-0.1-0.1c-0.3-0.5,0.4,0.8,0.1,0.2c0,0,0,0.1,0.1,0.1c-0.2-0.3,0.1,0.3-0.1-0.2
						c-0.1-0.1,0.1,0.1,0.1,0.3l-0.1-0.3l0.1,0.3c0.1,0.2-0.3-0.7-0.1-0.2l0.1,0.2c0,0,0,0.1-0.1-0.1c0,0,0.1,0.2,0,0.1l-0.1-0.1
						l0.1,0.2c0-0.1-0.3-0.6-0.3-0.6c0,0.1,0.2,0.4,0.2,0.5c0,0,0,0.1,0.1,0.2l0,0.1c0.2,0.4,0.4,0.9,0.5,1.1l-0.1-0.3l0.1,0.2l0,0
						c0.1,0.2,0,0,0-0.1c0.1,0.1,0.1,0.2,0.1,0.2l-0.2-0.4c0.1,0.2,0.2,0.3,0.2,0.4c-0.1-0.2-0.2-0.4-0.2-0.5
						c0.1,0.2,0.2,0.3,0.1,0.2c0.1,0.1,0.1,0.2,0.1,0.2c-0.1-0.1,0-0.1-0.1-0.3c0.1,0.2,0-0.1,0.2,0.3c0-0.1-0.1-0.3-0.1-0.3
						c0.2,0.5,0,0,0.3,0.5c-0.2-0.4-0.1-0.2-0.2-0.4c0,0,0,0.1,0,0.1c0,0,0.1,0.2,0.1,0.2c-0.2-0.4-0.2-0.4-0.3-0.7
						C36.3,155.4,36.4,155.5,36.6,155.9c-0.2-0.4-0.2-0.4-0.3-0.6c0.1,0.2,0.1,0.1,0.2,0.4c-0.2-0.4,0-0.1-0.2-0.3
						c0.1,0.2,0.2,0.4,0.2,0.3C36.5,155.7,36.6,155.9,36.6,155.9z M36.4,155L36.4,155C36.4,155.1,36.4,155.1,36.4,155
						C36.4,155.1,36.4,155.1,36.4,155z M36.4,155C36.4,155,36.4,155,36.4,155c-0.1-0.1-0.1-0.2-0.1-0.2
						C36.3,154.9,36.4,155,36.4,155z M35.4,153.4C35.4,153.3,35.4,153.4,35.4,153.4C35.4,153.4,35.4,153.4,35.4,153.4l0.1,0.1
						C35.4,153.4,35.4,153.4,35.4,153.4z"/>
					<path class="st3" d="M35.6,153.7C35.6,153.7,35.6,153.7,35.6,153.7C35.6,153.7,35.6,153.7,35.6,153.7L35.6,153.7L35.6,153.7z"
						/>
					<path class="st3" d="M36.5,153.4L36.5,153.4C36.5,153.4,36.5,153.4,36.5,153.4C36.5,153.4,36.5,153.4,36.5,153.4z"/>
					<polygon class="st3" points="36.9,155.4 36.8,155.3 36.9,155.4 					"/>
					<path class="st3" d="M37.3,154C37.3,154,37.4,154,37.3,154C37.4,154,37.3,154,37.3,154z"/>
					<path class="st3" d="M37.4,154L37.4,154C37.4,154,37.4,154,37.4,154z"/>
					<path class="st3" d="M37.5,154C37.5,154,37.4,154,37.5,154L37.5,154L37.5,154z"/>
					<path class="st3" d="M37.5,154.6C37.5,154.6,37.5,154.6,37.5,154.6C37.5,154.7,37.5,154.6,37.5,154.6z"/>
					<path class="st3" d="M37.1,154.1C37.1,154.1,37.1,154.1,37.1,154.1C37.2,154.2,37.2,154.2,37.1,154.1z"/>
					<polygon class="st3" points="37.6,155 37.6,155 37.6,155 					"/>
					<path class="st3" d="M37.2,154.2C37.2,154.2,37.2,154.2,37.2,154.2C37.2,154.2,37.1,154.1,37.2,154.2z"/>
					<path class="st3" d="M37.7,154L37.7,154C37.7,154,37.7,154,37.7,154L37.7,154z"/>
					<path class="st3" d="M37.7,154L37.7,154C37.6,154,37.6,154,37.7,154z"/>
					<path class="st3" d="M37.6,153.9L37.6,153.9C37.6,154,37.6,154,37.6,153.9z"/>
					<path class="st3" d="M37.6,154L37.6,154C37.6,154,37.6,154,37.6,154z"/>
					<path class="st3" d="M37.6,154c0,0,0.2,0.1,0.1,0.1L37.6,154C37.8,154.1,37.4,153.9,37.6,154z"/>
					<path class="st3" d="M36.5,153.3L36.5,153.3c0,0-0.1-0.1-0.2-0.1C36.1,153,36.6,153.3,36.5,153.3z"/>
					<path class="st3" d="M36.4,153.2c0,0-0.1-0.1-0.2-0.1C36.3,153.1,36.3,153.2,36.4,153.2z"/>
					<path class="st3" d="M36.3,153.3l-0.2-0.2C36.2,153.2,36.2,153.2,36.3,153.3z"/>
					<polygon class="st3" points="37.3,154.2 37.4,154.3 37.3,154.1 					"/>
					<polygon class="st3" points="35.9,153 35.9,153 36,153.1 					"/>
					<path class="st3" d="M35.9,153.2l0.2,0.2C36,153.4,35.8,153.1,35.9,153.2z"/>
					<path class="st3" d="M36,153.5C35.9,153.4,35.8,153.3,36,153.5C36,153.4,36,153.5,36,153.5z"/>
					<polygon class="st3" points="35.5,153.3 35.4,153.2 35.5,153.2 					"/>
				</g>
			</g>
		</g>
	</g>
</g>
<g>
	<g>
		<g>
			<g>
				<g>
					<path class="st3" d="M48.5,155.5c0-0.1-0.1-0.2-0.1-0.2L48.5,155.5L48.5,155.5z"/>
					<path class="st3" d="M48.1,155c0.1,0.1,0.2,0.4,0.3,0.7c-0.1-0.3-0.1-0.2-0.2-0.5c0,0,0.1,0.1,0.1,0.2c0-0.1,0.1,0,0-0.1
						c-0.2-0.2-0.2-0.2-0.1,0C48.2,155.1,48.2,155,48.1,155z"/>
					<path class="st3" d="M46.9,154.6L46.9,154.6C46.9,154.6,46.9,154.6,46.9,154.6z"/>
					<path class="st3" d="M46.5,154.1C46.5,154.1,46.5,154.1,46.5,154.1C46.5,154.1,46.5,154.1,46.5,154.1z"/>
					<path class="st3" d="M46.6,153.8C46.6,153.8,46.6,153.8,46.6,153.8C46.6,153.8,46.7,153.7,46.6,153.8z"/>
					<path class="st3" d="M46.9,154.6l0-0.1C46.9,154.6,46.9,154.5,46.9,154.6z"/>
					<path class="st3" d="M48.2,155.8C48.2,155.8,48.2,155.8,48.2,155.8C48.2,155.7,48.2,155.8,48.2,155.8L48.2,155.8z"/>
					<path class="st3" d="M47.2,154.4L47.2,154.4c0,0,0-0.1,0-0.1L47.2,154.4z"/>
					<path class="st3" d="M47.4,154.3c0,0,0,0.3,0,0.4c0-0.1,0-0.2,0-0.2C47.4,154.5,47.4,154.4,47.4,154.3z"/>
					<path class="st3" d="M47.8,154.8L47.8,154.8C47.8,154.7,47.8,154.8,47.8,154.8z"/>
					<path class="st3" d="M47.1,154.3C47.2,154.2,47.2,154.2,47.1,154.3C47.2,154.2,47.1,154.3,47.1,154.3z"/>
					<path class="st3" d="M41.6,154.6C41.6,154.6,41.6,154.6,41.6,154.6C41.6,154.6,41.6,154.6,41.6,154.6z"/>
					<polygon class="st3" points="41.3,153.2 41.3,153.2 41.3,153 					"/>
					<path class="st3" d="M46.8,153.4L46.8,153.4C46.8,153.4,46.8,153.4,46.8,153.4z"/>
					<path class="st3" d="M45.7,150.2c-0.2,0.5-0.2,0.5-0.4,1C45.4,151,45.6,150.5,45.7,150.2z"/>
					<path class="st3" d="M48.2,155.8C48.2,155.8,48.2,155.8,48.2,155.8C48.2,155.8,48.2,155.8,48.2,155.8z"/>
					<path class="st3" d="M45.3,151.2L45.3,151.2L45.3,151.2C45.3,151.2,45.3,151.2,45.3,151.2z"/>
					<path class="st3" d="M46.5,153.2c0,0-0.1,0-0.1,0.1C46.4,153.3,46.4,153.3,46.5,153.2z"/>
					<path class="st3" d="M46.3,153.7L46.3,153.7C46.3,153.7,46.3,153.7,46.3,153.7z"/>
					<path class="st3" d="M46,153.2C46.1,153.2,46.1,153.2,46,153.2C46,153.2,46,153.2,46,153.2C46.1,153.2,46.1,153.2,46,153.2z"/>
					<path class="st3" d="M45.9,152.9C45.9,152.9,45.9,152.9,45.9,152.9L45.9,152.9L45.9,152.9z"/>
					<path class="st3" d="M42.5,154.4c0-0.1,0-0.2-0.1-0.2C42.5,154.3,42.5,154.4,42.5,154.4z"/>
					<path class="st3" d="M48.2,155.7c0,0.1,0,0.1,0,0.1L48.2,155.7C48.2,155.7,48.2,155.7,48.2,155.7z"/>
					<path class="st3" d="M44.1,154.3L44.1,154.3C44.1,154.3,44.1,154.3,44.1,154.3z"/>
					<path class="st3" d="M43.9,153.8L43.9,153.8C43.9,153.9,43.9,153.9,43.9,153.8z"/>
					<path class="st3" d="M44.1,154.3c0.1-0.1,0.1-0.1,0.2-0.1C44.2,154.2,44.2,154.2,44.1,154.3L44.1,154.3z"/>
					<path class="st3" d="M42.5,154.1L42.5,154.1L42.5,154.1z"/>
					<path class="st3" d="M42.3,154.8c0.1,0,0-0.4,0-0.6c0-0.1,0.1,0.3,0.1,0.5c0-0.1,0-0.4,0-0.4c0,0.1,0,0.1,0,0.2
						c0-0.3,0.1,0,0.1-0.4c0,0,0,0.1,0,0.1c0-0.2-0.1-0.4-0.1-0.5c0,0,0-0.2,0,0c0,0,0,0.1,0,0.2l0-0.1c0.1,0.3,0,0.1,0,0.4
						c0-0.1,0-0.4,0.1-0.3c0.1,0.3,0,0.1,0.1,0.4l-0.1-0.1c0.1,0.5,0,0,0.1,0.5c0.1,0.1,0-0.2,0.1-0.1c0-0.2-0.1-0.3-0.1-0.5
						c0-0.3,0.3,0.8,0.2,0.4c0-0.2-0.1-0.6,0-0.4l0.1,0.4c0.1,0-0.1-0.5,0-0.3c0,0.1,0,0.1,0,0.2c0.1,0.3,0-0.2,0-0.2l0.1,0.3
						c0.1-0.1,0-0.3,0.1-0.4c0,0.1,0.1,0.2,0.1,0.3c0-0.2,0.2,0,0.4,0.1l-0.1-0.3c0,0,0.1,0.1,0.1,0.2c0.1,0.1-0.1-0.2-0.1-0.3
						c0,0,0.1,0.1,0.1,0.2c0-0.3-0.1-0.5,0-0.3l0,0.1c0.1,0.1-0.2-0.6-0.1-0.3l0,0.1c0.1,0.1,0.1-0.2,0.2,0.3c-0.1-0.4,0,0.2,0-0.4
						c0.1,0.3,0.1,0.4,0.1,0.6c0,0,0-0.4,0-0.5l0,0.3l0-0.4l0,0.4l0-0.1c0,0,0-0.2,0-0.3c0-0.2,0,0.2,0,0.4l0-0.3c0,0.1,0,0.2,0,0.3
						c0-0.4,0,0.4,0,0c0-0.1,0-0.2,0-0.3c0,0.2,0,0.2,0,0.1l0,0.3c0,0.1,0-0.1,0-0.1c0-0.1,0.1-0.6,0.1-0.7l-0.1,0.4
						c0-0.3,0-0.2,0.1-0.5c0,0-0.1,0.5-0.1,0.6l0-0.2c0,0.1,0,0.2-0.1,0.4c0.1-0.3-0.1,0.4,0,0l0,0.1c0-0.1,0-0.1,0.1-0.2
						c0.1-0.4,0.1-0.3,0.2-0.7c0,0.1-0.1,0.4-0.1,0.4c0.1-0.2,0.1-0.4,0.2-0.6c-0.1,0.2-0.1,0.3-0.1,0.4c0,0.1,0,0.1-0.1,0.3
						c0-0.1,0-0.1,0.2-0.4c0.1-0.2,0.1-0.2,0.1-0.4c0-0.1,0,0.2-0.1,0.4l0,0c0.2-0.7-0.4,1.2-0.1,0.4l0,0l0.2-0.4
						c0,0.1-0.1,0.3-0.2,0.5c0.3-0.6,0,0.1,0.1-0.3c-0.5,1.1,0,0-0.3,0.6l0.1-0.2c0.1-0.2-0.1,0.1-0.1,0.2c0.1-0.2,0.1-0.2,0.2-0.3
						c0.1-0.2-0.2,0.4-0.3,0.5c0,0,0.6-0.9,0.4-0.5l-0.2,0.3c0.3-0.3,0,0,0.3-0.2c-0.1,0.1-0.1,0.1-0.1,0.1c-0.2,0.2,0,0,0.1-0.1
						c0,0-0.1,0.1-0.2,0.2c-0.1,0.1,0.2-0.2,0.1,0c0,0-0.1,0.1-0.1,0.1c0.1-0.1,0,0,0.2-0.2c-0.1,0.1,0.1-0.1,0,0.1
						c0.3-0.2-0.1,0.1,0.3-0.1c-0.4,0.2-0.3,0.2-0.1,0.1c-0.1,0.1-0.1,0.1-0.3,0.2c0,0,0.1,0,0.3-0.1c-0.5,0.2,0.4-0.1-0.2,0.2
						c0.3,0,0.5,0,0.6,0c-0.4,0.2-0.1-0.1-0.5,0.2c0.2,0,0.6-0.2,0.5,0c0,0.1-0.2,0.1-0.2,0.1c0.2,0,0.1,0.2,0.3,0.1
						c0,0-0.1,0-0.1,0.1c0,0,0,0.1,0.1-0.1l-0.1,0c0.2-0.2,0.5-0.3,0.7-0.4c-0.5,0.3-0.1,0.2-0.7,0.6c0,0,0.1-0.1,0.2-0.2
						c0,0-0.1,0.1-0.2,0.2c0.1,0,0.3-0.2,0.3-0.1c-0.1,0.1-0.1,0.1-0.2,0.2c0.2-0.1,0.3-0.2,0.3-0.1c0,0-0.1,0.1-0.1,0.1
						c0.1,0,0.5-0.3,0.4-0.1c-0.3,0.3-0.1,0.1-0.3,0.4l0.1,0l0.1-0.1c0,0,0.2-0.2,0.2,0l-0.1,0.1l0.1,0l0.1-0.1
						c0.2-0.1,0.3-0.4,0.3-0.3c0,0,0,0-0.1,0.2l0,0c0.1-0.1,0.2-0.2,0.1-0.1c-0.1,0.1-0.2,0.3-0.3,0.4c0.2-0.2,0.1,0,0.3-0.3
						c-0.1,0.1-0.2,0.2-0.2,0.3l0.2-0.2c0,0.1-0.1,0.1-0.1,0.2c0,0.1,0.2-0.4,0.2-0.2c0,0,0,0-0.1,0.1c0,0.1,0.2-0.1,0.2,0.1
						c-0.2,0.3-0.1,0.1-0.2,0.3c0.1,0,0.4-0.3,0.4-0.2l0,0c0.2-0.5-0.1,0.3,0.1,0.1c0,0-0.1,0.3-0.1,0.2c0,0.1,0.2-0.1,0.3-0.2
						l-0.1,0.1c0,0.1,0.1,0.1,0.1,0.2c0.1-0.1,0.1-0.1,0.1-0.3c-0.1,0.8,0.3-0.4,0.2,0.3c0,0-0.1,0.1,0,0.1l0.1-0.1
						c0-0.2,0-0.1,0-0.3c0-0.1,0.1-0.2,0.1-0.2c-0.1,0.1-0.1,0.4,0,0.5c0-0.1,0-0.1,0-0.2c0,0.4,0.1-0.5,0.1-0.2l0,0.1
						c0-0.1,0.1-0.2,0.1-0.2c0,0.3,0,0.1,0,0.3c0,0,0.1-0.5,0.1-0.2c0,0.1,0,0.1-0.1,0.1c0,0.3,0,0.2,0.1,0.3l0,0l0.1,0.1l0-0.1
						c0-0.7,0.1-0.1,0.1-0.6c0,0.4,0,0.3,0,0.6c0,0.1,0.1,0.2,0.1,0.3c0-0.2,0.1,0.2,0.1-0.2c0,0.1,0,0,0.1,0.2c0-0.1,0-0.2,0-0.3
						c0-0.3,0.2,0.4,0.2-0.1c0-0.2,0-0.5-0.1-0.7c0.1,0.1,0.1,0.3,0.1,0.3c0.1,0.1,0.1,0.1,0.1,0c0,0.1,0.1,0.1,0.1,0.2
						c0,0-0.1-0.3,0-0.2c0,0.1,0.1,0.3,0.1,0.4c0-0.1,0-0.3,0-0.4c0.1,0.2,0.1,0.2,0.1,0.4c0-0.1,0-0.2-0.1-0.4l-0.1-0.1
						c0,0,0.1,0.2,0.1,0.3c0.1,0.2-0.1-0.1-0.1-0.2l0-0.1c-0.3-0.5,0,0.1-0.1,0.1l-0.1-0.4l0.1,0.3c0-0.1-0.1-0.3-0.1-0.4
						c-0.1-0.2,0,0.1-0.1-0.1c0,0,0-0.1,0-0.1l0,0.1c0-0.1-0.1-0.3-0.1-0.2c-0.1-0.2,0,0.3-0.1,0l0,0c0,0.1,0.1,0.3,0.1,0.7
						l-0.2-0.7l0.1,0.3c0,0,0,0,0-0.2c0,0.2,0,0.1,0,0.3c-0.1-0.3-0.1,0.1-0.1-0.3c0,0.2,0,0.2,0,0.3c-0.1-0.5,0,0.1-0.1-0.1
						c0-0.3,0-0.1,0-0.4c0,0.5,0-0.1-0.1,0c0,0.4,0,0.2-0.1,0.3c0-0.1,0-0.2-0.1-0.3l0-0.1c0,0.4-0.1,0.3-0.1,0.4
						c0-0.2,0-0.3,0.1-0.4l0,0c0,0.1,0,0.2-0.1,0.2l0-0.3c0,0-0.1,0.3-0.1,0.1c-0.1,0.2-0.1,0.7-0.2,0.9c0-0.1,0.1-0.4,0.1-0.4
						c0,0,0,0.1,0,0l0.1-0.2c0-0.1-0.1,0.2-0.1,0.2c0-0.2,0-0.1,0.1-0.3c0,0,0,0.1,0,0c0,0,0-0.2,0-0.3c0,0.1-0.1,0.3-0.1,0.3
						c0,0,0.1-0.2,0.1-0.3c0,0.1,0,0-0.1,0.3c0,0,0-0.1,0.1-0.2c0,0.1-0.1,0-0.2,0.3l0,0c0,0,0,0,0,0l0,0l0,0
						c-0.1,0.3,0-0.2-0.1-0.1l0-0.1c-0.1,0.1-0.1,0-0.2,0.2c0,0,0.1-0.2,0.1-0.3c-0.1,0.1-0.1,0.2-0.1,0c0.1-0.1,0.1-0.1,0.1-0.1
						c0-0.1,0.1-0.2-0.1,0c0.1-0.2,0.1-0.3,0.1-0.2l-0.1,0.2c0,0,0,0,0,0l0.2-0.3c0.2-0.4-0.4,0.5-0.1,0c-0.1,0.2-0.1,0.1-0.2,0.4
						c0-0.1,0.3-0.5,0.3-0.5c0.1-0.2-0.3,0.4-0.3,0.3c-0.1,0.1-0.3,0.3-0.4,0.4c0-0.1,0.3-0.4,0.4-0.5c0,0,0,0,0,0.1
						c0,0,0.1-0.1,0.1-0.2l-0.1,0.1c0.1-0.1,0-0.1,0.2-0.3c-0.1,0.1-0.1,0.1-0.2,0.2c0.1-0.1,0,0,0-0.1c0,0.1-0.1,0.2-0.1,0.2
						c0.1-0.1-0.2,0.2-0.2,0.2c0.1-0.1,0.3-0.3,0.2-0.2c0.1-0.1,0.2-0.2,0.3-0.3c-0.2,0.1,0.1-0.1,0.1-0.2l0.1-0.1c0,0,0,0,0,0
						l-0.2,0.2c0,0,0,0,0.1-0.1c-0.1,0.1-0.3,0.3-0.5,0.4c0.1-0.1-0.1,0.1,0.1-0.1c-0.1,0.1,0.2-0.2,0.3-0.2c0,0,0,0,0,0
						c0,0,0.1,0,0.1-0.1c0.2-0.2-0.3,0.2-0.3,0.2c0.1-0.1,0.3-0.2,0.2-0.2c0,0-0.2,0.2-0.3,0.3c0.1-0.1-0.1,0-0.1,0l0,0.1
						c-0.1,0.1-0.1,0.1-0.2,0.1c0.1-0.1,0.1,0,0.1-0.1c-0.3,0.2,0.2-0.2,0.1-0.1c0.1-0.1,0.3-0.2,0.3-0.2c-0.2,0.1,0.2-0.2,0-0.1
						c-0.2,0.1-0.1,0.1-0.4,0.2l0.2-0.1l-0.3,0.2c0,0,0.1-0.1,0.1,0c-0.2,0.1-0.1,0.1-0.3,0.2c0.3-0.2-0.2,0.1,0-0.1l0.5-0.3
						c0.2-0.2-0.3,0.1-0.2,0l-0.1,0.1c-0.2,0.1,0,0-0.1,0c0.2-0.1,0.2-0.1,0.3-0.2c-0.1,0.1,0,0-0.4,0.1l0.2-0.1
						c0.1-0.1-0.5,0.2-0.5,0.1c0.2-0.1,0.3-0.2,0.5-0.2c0,0,0-0.1-0.1,0c0.1-0.1-0.3,0.1-0.1,0c-0.1,0-0.3,0.1-0.3,0.1
						c0,0,0.1-0.1,0.1-0.1c-0.1,0-0.1,0-0.3,0.2c0.5-0.4-0.1-0.1,0.3-0.5c-0.1,0-0.1,0-0.2-0.1c0.1,0,0.1-0.1,0.1,0
						c0.1-0.2-0.5,0.4-0.3,0.2c0.3-0.3,0.2-0.1,0.2-0.2c0.5-0.5-0.1,0,0.2-0.4l0,0c0.2-0.2-0.2,0.1-0.2,0c0,0,0-0.1,0.1-0.1
						c-0.3,0.3-0.4,0.3-0.5,0.3c0.2-0.2,0.1-0.1,0.3-0.4c0,0-0.3,0.4-0.4,0.5c0.1-0.2,0.2-0.3,0.4-0.6l0,0c0.3-0.4,0-0.1,0-0.2
						l0.1-0.2c-0.1,0-0.4,0.4-0.4,0.3l-0.1,0.1c-0.3,0.4,0.2-0.3-0.1,0l0.3-0.5c-0.1,0.1-0.3,0.4-0.4,0.4c0.2-0.4,0.4-0.5,0.5-0.6
						c0,0,0-0.1-0.2,0.2c0,0,0.1-0.1,0.1-0.1c-0.2,0.4-0.4,0.5-0.4,0.5c0.6-1,0.1-0.4,0.5-1.3c-0.2,0.3,0-0.4,0-0.5
						c-0.4,1,0,0-0.5,1c0,0,0,0,0-0.1l0.2-0.7c0.1-0.3,0.1-0.2,0.2-0.4c0-0.2,0.2-0.5,0.3-0.8c-0.2,0.4-0.2,0.5-0.2,0.3l-0.2,0.6
						c-0.2,0.5,0.3-1,0.1-0.5l0.1-0.3c-0.1,0.1,0-0.3-0.4,0.6c0-0.1,0.2-0.5,0.2-0.5c0-0.3-0.4,0.8-0.2,0.1l0.1-0.3
						c0,0.1-0.2,0.6-0.1,0.2c0-0.1,0.1-0.3,0.1-0.4c0,0.1-0.2,0.6-0.1,0.3l0.1-0.4c0-0.1,0-0.2,0-0.1c-0.1,0.3-0.4,1.2-0.5,1.4
						c0.3-1,0.3-1.2,0.3-1.3l0-0.1c-0.1,0.1-0.4,1.1-0.6,1.6c0.1-0.9-0.2-0.1-0.3-0.4c0,0.1-0.1,0.6-0.1,0.7c0-0.1-0.1,0.6-0.1-0.1
						l0,0c0-0.6,0-0.4-0.1-0.3l-0.1,0.8c0-0.5-0.1-0.3-0.2-0.1c-0.1,0.2-0.1,0.4-0.2-0.1c0,0.2-0.1,0.2-0.1,0.4l0-0.4
						c-0.1,0-0.1,0-0.2,0.2l0-0.3c-0.1,0,0.1,1,0,1l-0.1-0.5c-0.1,0.1-0.3-0.2-0.3,0.2c0-0.1-0.1-0.2,0-0.2c0,0-0.3-0.2-0.1,0.4
						c-0.1-0.4-0.1,0-0.1,0.2l-0.1-0.3c0.1,0.4,0.1,0.4,0.1,0.6c0,0-0.1-0.2-0.1-0.1c-0.1-0.1,0.1,0.2,0,0.1l-0.1-0.2
						c0,0,0,0.1,0.1,0.3c0,0.1-0.1,0-0.2-0.3c0.1,0.1,0.1,0.3,0.1,0.3c0-0.1-0.1-0.1-0.1-0.2c-0.1-0.2,0,0.3-0.1,0.1
						c0-0.1-0.1-0.1-0.1-0.2c0,0,0.1,0,0.1,0c-0.1-0.2-0.1-0.3-0.2-0.6c0.1,0.2,0.2,0.6,0.1,0.5c0,0,0,0,0-0.1l0,0c0,0,0,0,0,0
						c0,0,0-0.1,0-0.1c-0.1-0.2-0.1-0.1-0.1-0.1c0.1,0.3,0.1,0.2,0.1,0.4c0,0,0,0,0,0c0,0,0,0,0,0l0,0c0,0,0,0,0,0
						c0,0.1,0.1,0.3,0,0.1c0,0.2,0.1,0.4,0.1,0.4c-0.1-0.4-0.2-0.6-0.3-0.8c0,0.2-0.1,0.1,0,0.6c0,0.1-0.1-0.1-0.1-0.2
						c0-0.1,0,0,0-0.1c0,0.1-0.1,0.1,0,0.4c-0.1-0.2-0.1-0.3-0.1-0.3l0-0.1c-0.2-0.6,0,1-0.2,0.2c0,0,0,0.1,0,0.1
						c-0.1-0.3-0.2,0.3-0.4-0.2c0-0.1,0,0.1,0,0.3l0-0.3l0,0.3c0,0.3-0.1-0.7-0.1-0.3l0,0.2c0,0-0.1,0.1-0.1-0.1c0,0,0,0.2,0,0.1
						l0-0.2l-0.1,0.3c0-0.1,0-0.6,0-0.7c0,0.1-0.1,0.5-0.1,0.6c0,0,0,0.1,0,0.3l0,0.1c0,0.5-0.1,0.9-0.1,1.3l0.1-0.3l0,0.2l0,0
						c0,0.2,0,0,0.1-0.1c0,0.1,0,0.2,0,0.2l0.1-0.4c0,0.2,0,0.4,0,0.5c0-0.2,0-0.4,0-0.5c0,0.2,0,0.4,0,0.2c0,0.1,0,0.2,0,0.2
						c0-0.1,0.1-0.1,0.1-0.3c0,0.3,0.1-0.1,0.1,0.4c0-0.1,0-0.3,0.1-0.4c0,0.5,0.1,0,0.1,0.6c0-0.5,0.1-0.2,0.1-0.5c0,0,0,0.1,0,0.1
						c0,0,0.1,0.2,0.1,0.3c0-0.4,0-0.5,0-0.7c0.1,0.4,0,0.5,0.1,0.8c0-0.3,0-0.3,0-0.6c0.1,0.2,0,0.1,0.1,0.4c0-0.5,0-0.1,0-0.4
						c0.1,0.2,0.1,0.5,0.1,0.3C42.3,154.6,42.3,154.8,42.3,154.8z M43.1,153.8L43.1,153.8C43.1,153.8,43.1,153.8,43.1,153.8
						C43.1,153.8,43.1,153.8,43.1,153.8z M43.2,153.7C43.2,153.7,43.2,153.7,43.2,153.7c-0.1-0.1-0.1-0.2-0.1-0.2
						C43.1,153.6,43.2,153.6,43.2,153.7z M42.4,151.9C42.4,151.9,42.5,151.9,42.4,151.9c0,0.1,0,0.1,0,0.1l0,0
						C42.5,152,42.5,152,42.4,151.9z"/>
					<path class="st3" d="M42.5,152.3C42.5,152.3,42.5,152.3,42.5,152.3C42.6,152.3,42.6,152.3,42.5,152.3L42.5,152.3L42.5,152.3z"
						/>
					<path class="st3" d="M46.9,154.6L46.9,154.6C46.9,154.6,46.9,154.6,46.9,154.6C46.9,154.6,46.9,154.6,46.9,154.6z"/>
					<polygon class="st3" points="43.9,154 43.9,153.9 43.9,154 					"/>
					<path class="st3" d="M47.1,155.6C47.1,155.7,47.1,155.7,47.1,155.6C47.1,155.7,47.1,155.7,47.1,155.6z"/>
					<path class="st3" d="M47.3,155.7l0,0.1C47.4,155.8,47.3,155.7,47.3,155.7z"/>
					<path class="st3" d="M47.5,155.9c0,0,0-0.1,0-0.1l0,0L47.5,155.9z"/>
					<path class="st3" d="M44.8,154.8C44.8,154.8,44.8,154.8,44.8,154.8C44.7,154.9,44.8,154.9,44.8,154.8z"/>
					<path class="st3" d="M45.9,155c0,0-0.1,0.1-0.1,0.1C45.8,155.1,45.8,155.1,45.9,155z"/>
					<polygon class="st3" points="44.1,154.3 44.1,154.3 44.1,154.3 					"/>
					<path class="st3" d="M45.7,155C45.7,155.1,45.7,155.1,45.7,155C45.8,155,45.8,155,45.7,155z"/>
					<path class="st3" d="M48.4,155.8L48.4,155.8C48.4,155.7,48.4,155.7,48.4,155.8L48.4,155.8z"/>
					<path class="st3" d="M48.4,155.7L48.4,155.7C48.4,155.7,48.4,155.7,48.4,155.7z"/>
					<path class="st3" d="M48.4,155.6L48.4,155.6C48.4,155.7,48.4,155.7,48.4,155.6z"/>
					<path class="st3" d="M48.1,155.7L48.1,155.7C48.1,155.8,48.1,155.8,48.1,155.7z"/>
					<path class="st3" d="M48,155.8c0,0,0.1,0.2,0.1,0.1L48,155.8C48.2,156,48,155.6,48,155.8z"/>
					<path class="st3" d="M47.5,154.6L47.5,154.6c0,0,0-0.2,0-0.2C47.5,154.1,47.6,154.7,47.5,154.6z"/>
					<path class="st3" d="M47.4,154.5c0-0.1,0-0.2,0-0.2C47.4,154.3,47.4,154.4,47.4,154.5z"/>
					<path class="st3" d="M46.8,154.3l0.1-0.2C46.9,154.1,46.9,154.2,46.8,154.3z"/>
					<polygon class="st3" points="46,155.4 45.9,155.5 46.1,155.3 					"/>
					<polygon class="st3" points="46.9,153.8 46.9,153.8 46.8,153.8 					"/>
					<path class="st3" d="M46.1,152.8l-0.3,0.2C45.9,153,46.2,152.7,46.1,152.8z"/>
					<path class="st3" d="M45.6,151.9c0.1-0.2,0.2-0.4,0.1-0.2C45.7,151.7,45.6,151.9,45.6,151.9z"/>
					<polygon class="st3" points="44.1,150.5 44.1,150.3 44.1,150.5 					"/>
				</g>
			</g>
		</g>
	</g>
</g>
<g>
	<g>
		<g>
			<g>
				<g>
					<path class="st3" d="M50.6,154.8c0.1,0,0.3,0,0.2,0L50.6,154.8L50.6,154.8z"/>
					<path class="st3" d="M51.2,154.7c-0.2,0-0.4,0-0.7,0c0.3,0,0.2,0,0.6,0c0,0-0.1,0-0.2,0c0.1,0-0.1,0,0.1,0c0.3,0,0.3,0,0.1,0
						C51.1,154.7,51.1,154.7,51.2,154.7z"/>
					<path class="st3" d="M51.7,154.7L51.7,154.7C51.7,154.7,51.7,154.7,51.7,154.7z"/>
					<path class="st3" d="M51.9,154.7C51.9,154.7,51.9,154.7,51.9,154.7C51.9,154.7,51.9,154.7,51.9,154.7z"/>
					<path class="st3" d="M52.3,154.7C52.2,154.7,52.2,154.7,52.3,154.7C52.3,154.7,52.3,154.7,52.3,154.7z"/>
					<path class="st3" d="M51.7,154.7l0.1,0C51.7,154.7,51.7,154.7,51.7,154.7z"/>
					<path class="st3" d="M50.4,154.7C50.4,154.7,50.4,154.7,50.4,154.7C50.5,154.7,50.5,154.7,50.4,154.7
						C50.4,154.7,50.4,154.7,50.4,154.7z"/>
					<path class="st3" d="M52,154.7L52,154.7c0,0,0.1,0,0.1,0L52,154.7z"/>
					<path class="st3" d="M52,154.7c0,0-0.3,0-0.4,0c0.1,0,0.2,0,0.2,0C51.9,154.7,52,154.7,52,154.7z"/>
					<path class="st3" d="M51.5,154.7L51.5,154.7C51.6,154.7,51.6,154.7,51.5,154.7z"/>
					<path class="st3" d="M52,154.7c0,0,0.1,0,0.1,0C52.1,154.7,52.1,154.7,52,154.7z"/>
					<path class="st3" d="M49.9,154.5C50,154.5,50,154.5,49.9,154.5C50,154.5,49.9,154.5,49.9,154.5z"/>
					<path class="st3" d="M51.3,154.5L51.3,154.5c0.1,0,0.1,0,0.2,0L51.3,154.5z"/>
					<path class="st3" d="M52.6,154.7C52.6,154.7,52.6,154.7,52.6,154.7C52.6,154.7,52.6,154.7,52.6,154.7z"/>
					<path class="st3" d="M52.4,154.6c-0.3,0-0.3,0-0.6,0C51.9,154.6,52.2,154.6,52.4,154.6z"/>
					<path class="st3" d="M50.4,154.7C50.4,154.7,50.4,154.7,50.4,154.7C50.4,154.7,50.4,154.7,50.4,154.7z"/>
					<path class="st3" d="M51.8,154.6C51.8,154.6,51.8,154.6,51.8,154.6L51.8,154.6C51.8,154.6,51.8,154.6,51.8,154.6z"/>
					<path class="st3" d="M52.5,154.7c0,0-0.1,0-0.1,0C52.4,154.7,52.4,154.7,52.5,154.7z"/>
					<path class="st3" d="M52.1,154.7L52.1,154.7C52.1,154.7,52.1,154.7,52.1,154.7z"/>
					<path class="st3" d="M52.1,154.7C52.1,154.7,52.1,154.7,52.1,154.7C52.1,154.7,52.1,154.7,52.1,154.7
						C52.1,154.7,52.1,154.7,52.1,154.7z"/>
					<path class="st3" d="M52.1,154.7C52,154.7,52,154.7,52.1,154.7C52,154.7,52,154.7,52.1,154.7L52.1,154.7z"/>
					<path class="st3" d="M50.1,154.5c0.1,0,0.2,0,0.3,0C50.1,154.5,50,154.5,50.1,154.5z"/>
					<path class="st3" d="M50.6,154.7c-0.1,0-0.1,0-0.1,0c0,0,0,0,0,0C50.5,154.7,50.5,154.7,50.6,154.7z"/>
					<path class="st3" d="M49.8,154.7L49.8,154.7C49.9,154.7,49.8,154.7,49.8,154.7z"/>
					<path class="st3" d="M50.1,154.6L50.1,154.6C50.1,154.6,50.1,154.6,50.1,154.6z"/>
					<path class="st3" d="M49.8,154.7c0.1,0,0.2,0,0.2,0c0,0,0,0-0.1,0L49.8,154.7z"/>
					<path class="st3" d="M49.7,154.5c0,0,0.4,0,0.6,0c0.1,0-0.3,0-0.5,0c0.1,0,0.4,0,0.4,0c-0.1,0-0.1,0-0.2,0c0.3,0,0,0,0.4,0
						c0,0-0.1,0-0.1,0c0.2,0,0.4,0,0.5,0c0,0,0.2,0,0,0c0,0-0.1,0-0.2,0l0.1,0c-0.3,0-0.1,0-0.4,0c0.1,0,0.4,0,0.3,0
						c-0.3,0-0.1,0-0.4,0l0.1,0c-0.5,0,0,0-0.5,0c-0.1,0,0.2,0,0.1,0c0.2,0,0.3,0,0.5,0c0.3,0-0.9,0-0.4,0c0.2,0,0.7,0,0.4,0l-0.4,0
						c0,0,0.6,0,0.3,0c-0.2,0-0.1,0-0.2,0c-0.3,0,0.2,0,0.2,0l-0.3,0c0.1,0,0.3,0,0.4,0c-0.1,0-0.2,0-0.3,0c0.2,0,0,0-0.2,0l0.3,0
						c0,0-0.1,0-0.2,0c-0.1,0,0.2,0,0.3,0c0,0-0.2,0-0.3,0c0.2,0,0.5,0,0.2,0l-0.1,0c-0.1,0,0.6,0,0.3,0l-0.1,0c-0.1,0,0.1,0-0.3,0
						c0.4,0-0.2,0,0.4,0c-0.3,0-0.4,0-0.6,0c0,0,0.4,0,0.4,0l-0.3,0l0.3,0l-0.4,0l0.1,0c0,0,0.1,0,0.2,0c0.1,0-0.2,0-0.4,0l0.3,0
						c-0.1,0-0.2,0-0.2,0c0.3,0-0.3,0,0,0c0.1,0,0.2,0,0.2,0c-0.2,0-0.2,0-0.1,0l-0.2,0c-0.1,0,0.1,0,0.1,0c0.1,0,0.5,0,0.5,0
						l-0.3,0c0.2,0,0.1,0,0.4,0c0,0-0.4,0-0.5,0l0.1,0c-0.1,0-0.1,0-0.3,0c0.2,0-0.3,0,0,0l-0.1,0c0,0,0.1,0,0.1,0
						c0.3,0,0.2,0,0.4,0c-0.1,0-0.3,0-0.3,0c0.1,0,0.2,0,0.4,0c-0.3,0-0.2,0-0.4,0c0,0,0.1,0,0.3,0c0.1,0,0.2,0,0.2,0
						c0,0-0.1,0-0.2,0l0,0c0.4,0-0.7,0-0.2,0l0,0l0.3,0c0,0-0.2,0-0.4,0c0.4,0-0.1,0,0.2,0c-0.8,0,0.1,0-0.4,0l0.2,0
						c0.2,0-0.1,0-0.1,0c0.1,0,0.2,0,0.3,0c0.2,0-0.3,0-0.4,0c0,0,0.9,0,0.5,0l-0.3,0c0.4,0,0,0,0.3,0c-0.1,0-0.2,0-0.2,0
						c-0.2,0,0,0,0.2,0c0,0-0.2,0-0.3,0c-0.1,0,0.3,0,0.1,0c0,0-0.1,0-0.1,0c0.1,0,0,0,0.2,0c-0.1,0,0.1,0,0,0c0.3,0-0.1,0,0.3,0
						c-0.5,0-0.4,0-0.2,0c-0.1,0-0.1,0-0.3,0c0,0,0.1,0,0.3,0c-0.5,0,0.4,0-0.3,0c0.2,0,0.4,0,0.5,0c-0.5,0,0,0-0.5,0
						c0.2,0,0.6,0,0.5,0c-0.1,0-0.2,0-0.3,0c0.2,0,0,0,0.2,0c0,0-0.1,0-0.1,0c0,0-0.1,0,0.1,0l-0.1,0c0.3,0,0.6,0,0.8,0
						c-0.6,0-0.1,0-0.9,0c0,0,0.1,0,0.3,0c0,0-0.1,0-0.3,0c0.1,0,0.3,0,0.3,0c-0.1,0-0.1,0-0.3,0c0.2,0,0.4,0,0.3,0
						c-0.1,0-0.1,0-0.1,0c0,0,0.5,0,0.3,0c-0.4,0-0.1,0-0.5,0l0.1,0l0.2,0c0,0,0.3,0,0.1,0l-0.2,0l0.1,0l0.1,0c0.2,0,0.5,0,0.4,0
						c0,0,0,0-0.2,0c0,0,0,0,0,0c0.1,0,0.2,0,0.2,0c-0.1,0-0.4,0-0.5,0c0.3,0,0.1,0,0.4,0c-0.1,0-0.3,0-0.3,0l0.3,0
						c-0.1,0-0.1,0-0.3,0c0,0,0.5,0,0.3,0c0,0-0.1,0-0.1,0c-0.1,0,0.2,0,0,0c-0.4,0-0.1,0-0.4,0c0.1,0,0.5,0,0.4,0l0,0
						c0.5,0-0.3,0,0,0c0,0-0.3,0-0.2,0c-0.1,0,0.1,0,0.3,0l-0.1,0c-0.1,0-0.1,0-0.1,0c0.1,0,0.1,0,0.3,0c-0.8,0,0.4,0-0.2,0
						c0,0-0.1,0-0.1,0l0.1,0c0.2,0,0.1,0,0.3,0c0.1,0,0.2,0,0.2,0c-0.2,0-0.4,0-0.5,0c0.1,0,0.1,0,0.2,0c-0.4,0,0.5,0,0.2,0l-0.1,0
						c0.1,0,0.2,0,0.2,0c-0.3,0-0.1,0-0.3,0c0,0,0.5,0,0.2,0c-0.1,0-0.1,0-0.1,0c-0.3,0-0.2,0-0.3,0l0,0l-0.1,0l0.1,0
						c0.7,0,0.1,0,0.6,0c-0.4,0-0.3,0-0.6,0c-0.1,0-0.2,0-0.3,0c0.2,0-0.2,0,0.2,0c-0.1,0,0,0-0.3,0c0.1,0,0.2,0,0.3,0
						c0.3,0-0.4,0,0.1,0c0.2,0,0.5,0,0.7,0c-0.2,0-0.4,0-0.4,0c-0.1,0-0.1,0,0,0c-0.1,0-0.2,0-0.3,0c0,0,0.4,0,0.2,0
						c-0.1,0-0.3,0-0.4,0c0.1,0,0.3,0,0.4,0c-0.2,0-0.3,0-0.4,0c0.1,0,0.2,0,0.4,0l0.1,0c0,0-0.2,0-0.3,0c-0.2,0,0.1,0,0.2,0l0.1,0
						c0.6,0-0.1,0-0.1,0l0.4,0l-0.3,0c0.1,0,0.3,0,0.4,0c0.2,0-0.1,0,0.1,0c0,0,0.1,0,0.1,0l-0.1,0c0.1,0,0.3,0,0.2,0
						c0.2,0-0.3,0,0,0l0,0c-0.1,0-0.3,0-0.7,0l0.8,0l-0.3,0c0,0,0,0,0.2,0c-0.2,0-0.1,0-0.3,0c0.3,0-0.1,0,0.4,0c-0.2,0-0.2,0-0.3,0
						c0.5,0-0.1,0,0.2,0c0.3,0,0.1,0,0.4,0c-0.5,0,0.1,0,0,0c-0.4,0-0.2,0-0.3,0c0.1,0,0.2,0,0.3,0l0.1,0c-0.4,0-0.3,0-0.4,0
						c0.2,0,0.3,0,0.4,0l0,0c-0.1,0-0.2,0-0.2,0l0.3,0c0,0-0.3,0-0.1,0c-0.3,0-0.7,0-0.9,0c0.1,0,0.4,0,0.4,0c0,0-0.1,0-0.1,0l0.2,0
						c0.1,0-0.2,0-0.2,0c0.2,0,0.1,0,0.3,0c0,0-0.1,0,0,0c0,0,0.2,0,0.3,0c-0.1,0-0.3,0-0.3,0c0,0,0.2,0,0.3,0c-0.1,0,0,0-0.3,0
						c0,0,0.1,0,0.2,0c-0.1,0,0,0-0.4,0l0,0c0,0,0,0,0,0c-0.3,0,0.2,0,0,0h0.1c-0.1,0-0.1,0-0.3,0c0,0,0.2,0,0.3,0c-0.1,0-0.2,0,0,0
						c0.2,0,0.2,0,0.1,0c0.1,0,0.2,0,0,0c0.3,0,0.3,0,0.2,0l-0.2,0c0,0,0,0,0,0l0.3,0c0.4,0-0.7,0,0,0c-0.2,0-0.2,0-0.4,0
						c0,0,0.5,0,0.5,0c0.2,0-0.5,0-0.4,0c-0.1,0-0.4,0-0.5,0c0,0,0.5,0,0.6,0c0,0,0,0-0.1,0c0,0,0.1,0,0.2,0l-0.1,0
						c0.1,0,0.1,0,0.3,0c-0.1,0-0.2,0-0.3,0c0.2,0,0,0,0.1,0c-0.1,0-0.2,0-0.2,0c0.1,0-0.2,0-0.3,0c0.2,0,0.4,0,0.3,0
						c0.1,0,0.3,0,0.4,0c-0.2,0,0.2,0,0.2,0l0.1,0c-0.1,0-0.1,0-0.1,0l-0.2,0c0,0,0,0,0.1,0c-0.2,0-0.4,0-0.6,0c0.1,0-0.1,0,0.2,0
						c-0.1,0,0.3,0,0.4,0c0,0,0,0,0,0c0,0,0.1,0,0.1,0c0.3,0-0.4,0-0.3,0c0.2,0,0.3,0,0.3,0c0,0-0.3,0-0.4,0c0.1,0-0.1,0-0.1,0
						l-0.1,0c-0.2,0-0.2,0-0.2,0c0.1,0,0.1,0,0.2,0c-0.3,0,0.3,0,0.1,0c0.1,0,0.3,0,0.4,0c-0.2,0,0.2,0,0.1,0c-0.2,0-0.2,0-0.4,0
						l0.2,0l-0.3,0c0,0,0.2,0,0.1,0c-0.2,0-0.1,0-0.3,0c0.4,0-0.2,0,0,0l0.6,0c0.3,0-0.3,0-0.2,0l-0.1,0c-0.2,0,0,0-0.1,0
						c0.2,0,0.3,0,0.4,0c-0.1,0,0,0-0.4,0l0.3,0c0.1,0-0.6,0-0.5,0c0.2,0,0.4,0,0.5,0c0,0,0,0-0.1,0c0.1,0-0.3,0-0.1,0
						c-0.1,0-0.3,0-0.3,0c0,0,0.1,0,0.1,0c-0.1,0-0.1,0-0.4,0c0.6,0,0,0,0.5,0c-0.1,0-0.1,0-0.1,0c0.1,0,0.1,0,0.1,0
						c0.2,0-0.6,0-0.4,0c0.3,0,0.2,0,0.3,0c0.6,0-0.1,0,0.3,0l0,0c0.2,0-0.2,0-0.2,0c0,0,0.1,0,0.1,0c-0.3,0-0.4,0-0.5,0
						c0.3,0,0.1,0,0.4,0c0,0-0.4,0-0.5,0c0.1,0,0.3,0,0.5,0l0,0c0.4,0,0,0,0,0l0.2,0c-0.1,0-0.4,0-0.4,0l-0.1,0c-0.4,0,0.2,0-0.1,0
						l0.4,0c-0.1,0-0.4,0-0.5,0c0.3,0,0.4,0,0.6,0c0,0,0,0-0.2,0c0,0,0.1,0,0.1,0c-0.3,0-0.5,0-0.5,0c0.8,0,0.2,0,0.8,0
						c-0.3,0,0.1,0,0.1,0c-0.6,0,0,0-0.6,0c0,0,0,0,0,0l0.4,0c0.2,0,0.1,0,0.3,0c0,0,0.3,0,0.4,0c-0.2,0-0.3,0-0.2,0l-0.3,0
						c-0.3,0,0.5,0,0.2,0l0.2,0c-0.1,0,0,0-0.5,0c0.1,0,0.2,0,0.3,0c0.1,0-0.5,0-0.2,0l0.1,0c0,0-0.3,0-0.1,0c0.1,0,0.1,0,0.2,0
						c-0.1,0-0.3,0-0.2,0l0.2,0c0.2,0-0.4,0-0.5,0c0.4,0,0.6,0,0.7,0l0.1,0c0.1,0-0.4,0-0.5,0c0.5,0,0.2,0,0.5,0c-0.1,0-0.3,0-0.4,0
						c0.1,0-0.3,0,0.1,0l0,0c0.4,0,0.3,0,0.3,0l-0.5,0c0.8,0-0.3,0,0.4,0c-0.1,0-0.1,0-0.3,0l0.3,0c0.1,0,0.1,0,0,0l0.2,0
						c0,0-0.8,0-0.8,0l0.4,0c0,0,0.4,0,0,0c0.1,0,0.2,0,0.2,0c0,0,0.3,0-0.3,0c0.4,0,0,0-0.1,0l0.3,0c-0.4,0-0.5,0-0.6,0
						c0,0,0.2,0,0.2,0c0.1,0-0.3,0-0.1,0l0.2,0c0,0-0.1,0-0.3,0c-0.1,0,0.1,0,0.3,0c-0.2,0-0.4,0-0.3,0c0.1,0,0.2,0,0.2,0
						c0.2,0-0.3,0-0.1,0c0.1,0,0.1,0,0.2,0c0,0,0,0,0,0c0.3,0,0.3,0,0.7,0c-0.2,0-0.6,0-0.5,0c0,0,0,0,0.1,0l0,0c0,0,0,0,0,0
						c0,0,0.1,0,0.1,0c0.2,0,0.1,0,0.1,0c-0.3,0-0.2,0-0.5,0c0,0,0,0,0,0c0,0,0,0,0,0c0,0,0,0,0,0c0,0,0,0,0,0c-0.1,0-0.3,0-0.1,0
						c-0.2,0-0.4,0-0.5,0c0.4,0,0.6,0,0.8,0c-0.2,0-0.1,0-0.6,0c-0.1,0,0.2,0,0.2,0c0.1,0,0,0,0.1,0c-0.1,0-0.1,0-0.4,0
						c0.2,0,0.3,0,0.3,0l0.1,0c0.6,0-0.9,0-0.2,0c0,0-0.1,0-0.1,0c0.3,0-0.3,0,0.2,0c0.1,0-0.1,0-0.3,0l0.3,0l-0.3,0
						c-0.3,0,0.7,0,0.3,0l-0.2,0c0,0-0.1,0,0.1,0c0,0-0.2,0-0.1,0l0.2,0l-0.3,0c0.1,0,0.6,0,0.7,0c-0.1,0-0.5,0-0.6,0
						c0,0-0.1,0-0.3,0l-0.1,0c-0.5,0-0.9,0-1.3,0l0.3,0l-0.2,0l0,0c-0.2,0,0,0,0.1,0c-0.1,0-0.2,0-0.2,0l0.4,0c-0.2,0-0.4,0-0.5,0
						c0.2,0,0.4,0,0.5,0c-0.2,0-0.4,0-0.2,0c-0.1,0-0.2,0-0.2,0c0.1,0,0.1,0,0.3,0c-0.3,0,0.1,0-0.4,0c0.1,0,0.3,0,0.4,0
						C49.8,154.5,50.3,154.5,49.7,154.5c0.6,0,0.3,0,0.6,0c0,0-0.1,0-0.1,0c0,0-0.2,0-0.3,0c0.4,0,0.5,0,0.7,0c-0.4,0-0.5,0-0.8,0
						c0.3,0,0.3,0,0.6,0c-0.2,0-0.1,0-0.4,0c0.5,0,0.1,0,0.4,0c-0.2,0-0.5,0-0.3,0C49.8,154.5,49.7,154.5,49.7,154.5z M50.5,154.5
						C50.5,154.5,50.5,154.5,50.5,154.5C50.5,154.5,50.5,154.5,50.5,154.5C50.5,154.5,50.5,154.5,50.5,154.5z M50.5,154.5
						C50.5,154.5,50.5,154.5,50.5,154.5c0.1,0,0.2,0,0.2,0C50.6,154.5,50.6,154.5,50.5,154.5z M52.5,154.5
						C52.5,154.5,52.4,154.5,52.5,154.5c-0.1,0-0.1,0-0.1,0c0,0,0,0,0,0C52.4,154.5,52.4,154.5,52.5,154.5z"/>
					<path class="st3" d="M52.1,154.5C52.1,154.5,52.1,154.5,52.1,154.5C52,154.5,52,154.5,52.1,154.5
						C52,154.5,52.1,154.5,52.1,154.5C52.1,154.5,52.1,154.5,52.1,154.5z"/>
					<path class="st3" d="M51.7,154.7L51.7,154.7C51.7,154.7,51.7,154.7,51.7,154.7C51.6,154.7,51.7,154.7,51.7,154.7z"/>
					<polygon class="st3" points="50,154.6 50,154.6 50,154.6 					"/>
					<path class="st3" d="M50.7,154.7C50.7,154.7,50.7,154.7,50.7,154.7C50.6,154.7,50.7,154.7,50.7,154.7z"/>
					<path class="st3" d="M50.6,154.7l-0.1,0C50.6,154.7,50.6,154.7,50.6,154.7z"/>
					<path class="st3" d="M50.5,154.7c0,0,0.1,0,0.1,0c0,0,0,0,0,0L50.5,154.7z"/>
					<path class="st3" d="M50.2,154.7C50.2,154.7,50.2,154.7,50.2,154.7C50.1,154.7,50.1,154.7,50.2,154.7z"/>
					<path class="st3" d="M50.8,154.7c-0.1,0-0.1,0-0.1,0C50.7,154.7,50.7,154.7,50.8,154.7z"/>
					<polygon class="st3" points="49.8,154.7 49.8,154.7 49.8,154.7 					"/>
					<path class="st3" d="M50.7,154.7C50.6,154.7,50.7,154.7,50.7,154.7C50.7,154.7,50.7,154.7,50.7,154.7z"/>
					<path class="st3" d="M50.4,154.7L50.4,154.7C50.4,154.7,50.4,154.7,50.4,154.7L50.4,154.7z"/>
					<path class="st3" d="M50.4,154.7L50.4,154.7C50.4,154.7,50.4,154.7,50.4,154.7z"/>
					<path class="st3" d="M50.5,154.7L50.5,154.7C50.4,154.7,50.4,154.7,50.5,154.7z"/>
					<path class="st3" d="M50.5,154.7l-0.1,0C50.4,154.7,50.5,154.7,50.5,154.7z"/>
					<path class="st3" d="M50.5,154.7c0,0-0.2,0-0.2,0L50.5,154.7C50.2,154.7,50.6,154.7,50.5,154.7z"/>
					<path class="st3" d="M51.7,154.7L51.7,154.7c0,0,0.2,0,0.2,0C52.3,154.7,51.7,154.7,51.7,154.7z"/>
					<path class="st3" d="M51.9,154.7c0.1,0,0.2,0,0.2,0C52,154.7,52,154.7,51.9,154.7z"/>
					<path class="st3" d="M51.9,154.7l0.3,0C52.1,154.7,52,154.7,51.9,154.7z"/>
					<polygon class="st3" points="50.6,154.7 50.4,154.7 50.6,154.7 					"/>
					<polygon class="st3" points="52.4,154.7 52.4,154.7 52.3,154.7 					"/>
					<path class="st3" d="M52.3,154.7l-0.3,0C52,154.7,52.4,154.7,52.3,154.7z"/>
					<path class="st3" d="M52,154.6c0.2,0,0.3,0,0.1,0C52.1,154.6,51.9,154.6,52,154.6z"/>
					<polygon class="st3" points="52.5,154.6 52.6,154.6 52.5,154.6 					"/>
				</g>
			</g>
		</g>
	</g>
</g>
<linearGradient id="SVGID_4_" gradientUnits="userSpaceOnUse" x1="33.7432" y1="150.4167" x2="33.7432" y2="96">
	<stop  offset="0.102" style="stop-color:#FDE909"/>
	<stop  offset="1" style="stop-color:#F4A127"/>
</linearGradient>
<path class="st4" d="M47,96c0,0-7.8,25.9-23.6,24.9c0,0-0.2-3.7,0.6-7.1c0.3-1.1-13.1,10-15.3,15.5c-2.2,5.8,1.1,18.7,1.3,18
	c1-4.9,4.7-13.8,8-16.3c0,0,2.1,13.2,9.9,19.4c0.5,0.4-1.9-7.9-1.1-11.9c0.2-0.9,4.2,8.3,4.3,7.5c1.1-10.6,8.3-15.1,9.5-15.8l1.5,11
	c13.5-8.2,17.5-37.5,17.5-37.5s-7.8,13.4-10,14.5C49.5,118.3,50.3,100.3,47,96z"/>
</svg>
