<?xml version="1.0" encoding="utf-8"?>
<!-- Generator: Adobe Illustrator 19.1.0, SVG Export Plug-In . SVG Version: 6.00 Build 0)  -->
<svg version="1.1" id="Lager_1" xmlns="http://www.w3.org/2000/svg" xmlns:xlink="http://www.w3.org/1999/xlink" x="0px" y="0px"
	 viewBox="0 0 86.3 86.3" style="enable-background:new 0 0 86.3 86.3;" xml:space="preserve">
<style type="text/css">
	.st0{fill:none;stroke:url(#SVGID_1_);stroke-width:8;stroke-linecap:round;stroke-miterlimit:10;}
	.st1{fill:url(#SVGID_2_);}
</style>
<linearGradient id="SVGID_1_" gradientUnits="userSpaceOnUse" x1="182.557" y1="106.4177" x2="182.557" y2="106.4177">
	<stop  offset="0" style="stop-color:#FFFFFF"/>
	<stop  offset="1" style="stop-color:#0000FF"/>
</linearGradient>
<path class="st0" d="M182.6,106.4"/>
<g>
	<radialGradient id="SVGID_2_" cx="43.5831" cy="43.1139" r="37.5126" gradientUnits="userSpaceOnUse">
		<stop  offset="1" style="stop-color:#FFFFFF"/>
		<stop  offset="1" style="stop-color:#0000FF"/>
	</radialGradient>
	<path class="st1" d="M6.3,35.8C9.8,18.5,25,5.5,43.3,5.5c20.8,0,37.7,16.9,37.7,37.7S64.1,80.8,43.3,80.8
		c-18.5,0-33.9-13.4-37.1-31"/>
	<g>
		<g>
			<defs>
				<path id="SVGID_3_" d="M10.5,35.7l-0.2,0.8l-0.1,0.3c-0.5,2.1-2.7,3.4-4.8,2.9c-2.1-0.5-3.4-2.7-2.9-4.8l0.3-1.1L10.5,35.7z"/>
			</defs>
			<clipPath id="SVGID_4_">
				<use xlink:href="#SVGID_3_"  style="overflow:visible;"/>
			</clipPath>
			<g style="clip-path:url(#SVGID_4_);">
				
					<image style="overflow:visible;" width="11.8" height="18.2" xlink:href="A63CCECF.png"  transform="matrix(1 0 0 1 -1.3208 33.9375)"/>
			</g>
		</g>
		
			<image style="overflow:visible;" width="82.7" height="83.3" xlink:href="A63CCECD.png"  transform="matrix(1 0 0 1 2.2786 1.4561)"/>
		<g>
			<defs>
				<path id="SVGID_5_" d="M2.5,51.5l-0.2-1.1c-0.5-2.2,0.9-4.3,3-4.8c2.1-0.5,4.3,0.9,4.8,3l0.1,0.4l0.2,0.9L2.5,51.5z"/>
			</defs>
			<clipPath id="SVGID_6_">
				<use xlink:href="#SVGID_5_"  style="overflow:visible;"/>
			</clipPath>
			<g style="clip-path:url(#SVGID_6_);">
				
					<image style="overflow:visible;" width="11.5" height="18.1" xlink:href="A63CCED3.png"  transform="matrix(1 0 0 1 -1.1786 33.438)"/>
			</g>
		</g>
	</g>
</g>
</svg>
